<svg width="418" height="460" viewBox="0 0 418 460" fill="none" xmlns="http://www.w3.org/2000/svg">
<path d="M33.2599 1.05439C33.798 1.06721 34.2042 1.53881 34.1913 2.07687C34.045 8.21726 38.8499 13.3121 44.9233 13.4568C50.9966 13.6013 56.0388 8.74118 56.1851 2.6009C56.1979 2.06282 56.6251 1.6111 57.1632 1.62392L67.2503 1.86426C67.7883 1.87709 68.1935 2.34863 68.1807 2.88672C68.0345 9.02697 72.8395 14.1218 78.9127 14.2667C84.9861 14.4114 90.0281 9.5511 90.1745 3.41075C90.1873 2.87269 90.6154 2.42098 91.1535 2.4338L101.241 2.67414C101.779 2.68696 102.184 3.1585 102.171 3.69659C102.025 9.83686 106.83 14.9317 112.903 15.0765C118.976 15.2213 124.018 10.3609 124.165 4.22063C124.178 3.68256 124.606 3.23085 125.144 3.24367L135.231 3.48401C135.769 3.49683 136.175 3.96842 136.162 4.50649C136.016 10.6469 140.821 15.7417 146.894 15.8864C152.968 16.0309 158.01 11.1708 158.156 5.03052C158.169 4.49244 158.596 4.04072 159.134 4.05354L169.221 4.29388C169.759 4.3067 170.165 4.77825 170.152 5.31634C170.005 11.4566 174.811 16.5514 180.884 16.6963C186.957 16.841 191.999 11.9807 192.146 5.84037C192.158 5.30231 192.586 4.8506 193.125 4.86342L203.212 5.10376C203.75 5.11658 204.155 5.58812 204.142 6.12621C203.996 12.2665 208.801 17.3613 214.874 17.5062C220.947 17.6509 225.99 12.7906 226.136 6.65025C226.149 6.11218 226.577 5.66047 227.115 5.67329L237.202 5.91363C237.74 5.92645 238.145 6.39799 238.132 6.93608C237.986 13.0763 242.791 18.1712 248.864 18.316C254.938 18.4607 259.98 13.6004 260.126 7.46012C260.139 6.92205 260.567 6.47034 261.105 6.48316L271.192 6.7235C271.73 6.73632 272.137 7.20792 272.124 7.74598C271.978 13.8864 276.782 18.9812 282.856 19.1259C288.929 19.2704 293.971 14.4103 294.118 8.27002C294.13 7.73193 294.558 7.28022 295.096 7.29304L305.183 7.53338C305.721 7.5462 306.126 8.01774 306.113 8.55583C305.967 14.6961 310.772 19.7908 316.845 19.9358C322.919 20.0805 327.961 15.2202 328.107 9.07987C328.12 8.5418 328.548 8.09009 329.086 8.10291L339.173 8.34325C339.711 8.35607 340.116 8.82761 340.104 9.3657C339.957 15.5059 344.762 20.6008 350.836 20.7457C356.909 20.8904 361.951 16.0301 362.097 9.88974C362.11 9.35167 362.538 8.89996 363.076 8.91278L373.163 9.15312C373.702 9.16594 374.107 9.63749 374.094 10.1756C373.948 16.3158 378.753 21.4107 384.826 21.5555C390.899 21.7002 395.941 16.8399 396.088 10.6996C396.1 10.1615 396.529 9.70983 397.067 9.72265L397.112 9.72374C408.155 9.98685 416.893 19.1519 416.63 30.1945L406.891 438.953C406.628 449.996 397.463 458.734 386.42 458.471L386.375 458.47C385.837 458.457 385.43 457.986 385.443 457.448C385.589 451.307 380.785 446.213 374.711 446.068C368.638 445.923 363.596 450.784 363.449 456.924C363.437 457.462 363.009 457.914 362.471 457.901L352.384 457.66C351.846 457.648 351.44 457.176 351.453 456.638C351.599 450.498 346.794 445.403 340.721 445.258C334.648 445.114 329.605 449.974 329.459 456.114C329.446 456.652 329.019 457.104 328.481 457.091L318.394 456.851C317.856 456.838 317.451 456.366 317.463 455.828C317.61 449.688 312.805 444.593 306.731 444.448C300.658 444.303 295.616 449.164 295.47 455.304C295.457 455.842 295.029 456.294 294.491 456.281L284.404 456.041C283.865 456.028 283.46 455.556 283.473 455.018C283.619 448.878 278.814 443.783 272.741 443.638C266.668 443.494 261.626 448.354 261.479 454.494C261.467 455.032 261.038 455.484 260.5 455.471L250.413 455.231C249.875 455.218 249.469 454.746 249.482 454.208C249.628 448.068 244.823 442.973 238.75 442.828C232.677 442.684 227.634 447.544 227.488 453.684C227.475 454.222 227.048 454.674 226.51 454.661L216.423 454.421C215.885 454.408 215.479 453.937 215.491 453.398C215.638 447.258 210.833 442.163 204.759 442.019C198.686 441.874 193.644 446.734 193.498 452.874C193.485 453.413 193.058 453.864 192.52 453.851L182.432 453.611C181.894 453.598 181.489 453.127 181.502 452.589C181.648 446.448 176.843 441.354 170.77 441.209C164.697 441.064 159.655 445.924 159.508 452.065C159.495 452.603 159.067 453.054 158.529 453.042L148.442 452.801C147.904 452.788 147.499 452.317 147.512 451.779C147.658 445.639 142.853 440.544 136.78 440.399C130.706 440.254 125.664 445.114 125.518 451.255C125.505 451.793 125.077 452.244 124.539 452.232L114.452 451.991C113.914 451.978 113.508 451.507 113.52 450.969C113.667 444.828 108.862 439.734 102.788 439.589C96.7151 439.444 91.6729 444.305 91.5266 450.445C91.5138 450.983 91.0866 451.435 90.5485 451.422L80.4614 451.181C79.9233 451.169 79.5172 450.697 79.53 450.159C79.6763 444.019 74.8714 438.924 68.798 438.779C62.7247 438.634 57.6825 443.495 57.5362 449.635C57.5234 450.173 57.0962 450.625 56.5581 450.612L46.4711 450.372C45.933 450.359 45.5278 449.887 45.5406 449.349C45.6869 443.209 40.8818 438.114 34.8086 437.969C28.7353 437.824 23.6932 442.685 23.5469 448.825C23.534 449.363 23.1059 449.815 22.5678 449.802L20.5239 449.753C9.48142 449.49 0.742961 440.325 1.00596 429.283L10.7453 20.5236C11.0084 9.48108 20.1735 0.742613 31.216 1.00569L33.2599 1.05439ZM20.0578 448.736L20.5477 448.754C20.3311 448.748 20.1155 448.738 19.9007 448.726C19.9531 448.729 20.0053 448.734 20.0578 448.736ZM19.2338 448.674C19.3947 448.689 19.5562 448.702 19.7184 448.713C19.5562 448.702 19.3948 448.689 19.2338 448.674ZM18.5528 448.599C18.7071 448.619 18.8619 448.637 19.0174 448.654C18.8619 448.637 18.7071 448.619 18.5528 448.599ZM17.7118 448.474C17.9265 448.512 18.1427 448.544 18.36 448.575C18.1427 448.544 17.9265 448.512 17.7118 448.474Z" fill="#171717"/>
<path d="M34.1913 2.07687L33.1916 2.05305L33.1916 2.05305L34.1913 2.07687ZM44.9233 13.4568L44.8995 14.4565L44.8995 14.4565L44.9233 13.4568ZM56.1851 2.6009L57.1848 2.62472L57.1848 2.62472L56.1851 2.6009ZM68.1807 2.88672L67.181 2.8629L67.181 2.86291L68.1807 2.88672ZM78.9127 14.2667L78.8888 15.2664L78.8889 15.2664L78.9127 14.2667ZM90.1745 3.41075L91.1742 3.43458L91.1742 3.43457L90.1745 3.41075ZM102.171 3.69659L101.171 3.67277L101.171 3.67279L102.171 3.69659ZM112.903 15.0765L112.879 16.0763L112.879 16.0763L112.903 15.0765ZM124.165 4.22063L125.165 4.24446L125.165 4.24445L124.165 4.22063ZM136.162 4.50649L135.163 4.48267L135.163 4.48267L136.162 4.50649ZM146.894 15.8864L146.871 16.8862L146.871 16.8862L146.894 15.8864ZM158.156 5.03052L159.156 5.05434L159.156 5.05434L158.156 5.03052ZM170.152 5.31634L169.152 5.29252L169.152 5.29252L170.152 5.31634ZM180.884 16.6963L180.86 17.696L180.86 17.696L180.884 16.6963ZM192.146 5.84037L193.145 5.8642L193.145 5.86419L192.146 5.84037ZM204.142 6.12621L203.142 6.10239L203.142 6.1024L204.142 6.12621ZM214.874 17.5062L214.85 18.5059L214.85 18.5059L214.874 17.5062ZM226.136 6.65025L227.136 6.67407L227.136 6.67407L226.136 6.65025ZM238.132 6.93608L237.133 6.91226L237.133 6.91228L238.132 6.93608ZM248.864 18.316L248.841 19.3158L248.841 19.3158L248.864 18.316ZM260.126 7.46012L261.126 7.48395L261.126 7.48394L260.126 7.46012ZM272.124 7.74598L271.124 7.72216L271.124 7.72216L272.124 7.74598ZM282.856 19.1259L282.832 20.1257L282.832 20.1257L282.856 19.1259ZM294.118 8.27002L295.117 8.29384L295.117 8.29383L294.118 8.27002ZM306.113 8.55583L305.113 8.53201L305.113 8.53201L306.113 8.55583ZM316.845 19.9358L316.821 20.9355L316.821 20.9355L316.845 19.9358ZM328.107 9.07987L329.107 9.10369L329.107 9.10369L328.107 9.07987ZM340.104 9.3657L339.104 9.34188L339.104 9.34189L340.104 9.3657ZM350.836 20.7457L350.812 21.7454L350.812 21.7454L350.836 20.7457ZM362.097 9.88974L363.097 9.91357L363.097 9.91356L362.097 9.88974ZM374.094 10.1756L373.094 10.1518L373.094 10.1518L374.094 10.1756ZM384.826 21.5555L384.802 22.5552L384.802 22.5552L384.826 21.5555ZM396.088 10.6996L397.087 10.7234L397.087 10.7234L396.088 10.6996ZM397.112 9.72374L397.088 10.7235L397.112 9.72374ZM416.63 30.1945L415.63 30.1706L416.63 30.1945ZM406.891 438.953L407.89 438.977V438.977L406.891 438.953ZM385.443 457.448L386.443 457.472V457.472L385.443 457.448ZM374.711 446.068L374.735 445.068L374.735 445.068L374.711 446.068ZM363.449 456.924L362.45 456.9V456.9L363.449 456.924ZM351.453 456.638L352.453 456.662V456.662L351.453 456.638ZM340.721 445.258L340.745 444.258L340.745 444.258L340.721 445.258ZM329.459 456.114L328.459 456.09V456.09L329.459 456.114ZM317.463 455.828L318.463 455.852V455.852L317.463 455.828ZM306.731 444.448L306.755 443.448L306.755 443.448L306.731 444.448ZM295.47 455.304L294.47 455.28V455.28L295.47 455.304ZM283.473 455.018L284.473 455.042L284.473 455.042L283.473 455.018ZM272.741 443.638L272.765 442.639L272.765 442.639L272.741 443.638ZM261.479 454.494L260.48 454.47L260.48 454.47L261.479 454.494ZM249.482 454.208L250.481 454.232V454.232L249.482 454.208ZM238.75 442.828L238.774 441.829L238.774 441.829L238.75 442.828ZM227.488 453.684L226.488 453.66V453.66L227.488 453.684ZM215.491 453.398L216.491 453.422V453.422L215.491 453.398ZM204.759 442.019L204.783 441.019L204.783 441.019L204.759 442.019ZM193.498 452.874L192.498 452.851V452.851L193.498 452.874ZM181.502 452.589L182.502 452.612V452.612L181.502 452.589ZM170.77 441.209L170.794 440.209L170.794 440.209L170.77 441.209ZM159.508 452.065L158.509 452.041V452.041L159.508 452.065ZM147.512 451.779L148.511 451.803L148.511 451.803L147.512 451.779ZM136.78 440.399L136.804 439.399L136.804 439.399L136.78 440.399ZM125.518 451.255L124.518 451.231L124.518 451.231L125.518 451.255ZM113.52 450.969L114.52 450.993V450.993L113.52 450.969ZM102.788 439.589L102.812 438.589L102.812 438.589L102.788 439.589ZM91.5266 450.445L90.5269 450.421V450.421L91.5266 450.445ZM79.53 450.159L80.5297 450.183V450.183L79.53 450.159ZM68.798 438.779L68.8218 437.779L68.8218 437.779L68.798 438.779ZM57.5362 449.635L56.5365 449.611V449.611L57.5362 449.635ZM45.5406 449.349L46.5403 449.373V449.373L45.5406 449.349ZM34.8086 437.969L34.8325 436.969L34.8325 436.969L34.8086 437.969ZM23.5469 448.825L22.5471 448.801V448.801L23.5469 448.825ZM20.5239 449.753L20.5001 450.753L20.5001 450.753L20.5239 449.753ZM1.00596 429.283L0.00624808 429.259V429.259L1.00596 429.283ZM10.7453 20.5236L11.745 20.5474L10.7453 20.5236ZM31.216 1.00569L31.2398 0.00597653L31.2398 0.00597648L31.216 1.00569ZM20.0578 448.736L20.0086 449.735L20.022 449.735L20.0578 448.736ZM20.5477 448.754L20.5239 449.753C21.0737 449.766 21.5309 449.333 21.5473 448.783C21.5637 448.234 21.1331 447.774 20.5835 447.754L20.5477 448.754ZM19.9007 448.726L19.9582 447.727C19.4068 447.695 18.9341 448.117 18.9024 448.668C18.8706 449.219 19.2918 449.692 19.8432 449.724L19.9007 448.726ZM19.2338 448.674L19.3262 447.679C18.7763 447.628 18.2892 448.032 18.2381 448.582C18.187 449.132 18.5913 449.619 19.1412 449.67L19.2338 448.674ZM19.6513 449.711C20.2023 449.748 20.6791 449.331 20.7161 448.78C20.7532 448.229 20.3365 447.753 19.7854 447.716L19.7184 448.713L19.6513 449.711ZM18.5528 448.599L18.6808 447.607C18.1331 447.536 17.6318 447.923 17.561 448.47C17.4903 449.018 17.8768 449.52 18.4245 449.59L18.5528 448.599ZM19.0174 448.654L18.9137 449.648C19.463 449.706 19.9547 449.307 20.012 448.758C20.0694 448.208 19.6707 447.717 19.1214 447.659L19.0174 448.654ZM17.8836 447.489C17.3395 447.394 16.8215 447.758 16.7266 448.302C16.6317 448.846 16.9959 449.364 17.5399 449.459L17.7118 448.474L17.8836 447.489ZM18.36 448.575L18.2219 449.565C18.7689 449.641 19.2741 449.26 19.3504 448.713C19.4267 448.166 19.0452 447.661 18.4983 447.584L18.36 448.575ZM158.529 453.042L158.505 454.041L158.529 453.042ZM284.404 456.041L284.38 457.04L284.404 456.041ZM294.491 456.281L294.514 455.281L294.491 456.281ZM318.394 456.851L318.37 457.85L318.394 456.851ZM328.481 457.091L328.505 456.091L328.481 457.091ZM352.384 457.66L352.408 456.661L352.384 457.66ZM362.471 457.901L362.447 458.9L362.471 457.901ZM363.076 8.91278L363.1 7.91307L363.076 8.91278ZM339.173 8.34325L339.197 7.34353L339.173 8.34325ZM329.086 8.10291L329.11 7.10319L329.086 8.10291ZM237.202 5.91363L237.178 6.91335L237.202 5.91363ZM227.115 5.67329L227.091 6.67301L227.115 5.67329ZM159.134 4.05354L159.158 3.05383L159.134 4.05354ZM56.5581 450.612L56.582 449.612L56.5581 450.612ZM125.144 3.24367L125.168 2.24395L125.144 3.24367ZM169.221 4.29388L169.197 5.2936L169.221 4.29388ZM90.5485 451.422L90.5723 450.422L90.5485 451.422ZM46.4711 450.372L46.4473 451.371L46.4711 450.372ZM135.231 3.48401L135.207 4.48373L135.231 3.48401ZM373.163 9.15312L373.14 10.1528L373.163 9.15312ZM124.539 452.232L124.515 453.231L124.539 452.232ZM80.4614 451.181L80.4376 452.181L80.4614 451.181ZM114.452 451.991L114.476 450.992L114.452 451.991ZM148.442 452.801L148.466 451.801L148.442 452.801ZM34.1913 2.07687L33.1916 2.05305C33.0324 8.73523 38.2637 14.2984 44.8995 14.4565L44.9233 13.4568L44.9471 12.4571C39.4361 12.3258 35.0577 7.69929 35.1911 2.10069L34.1913 2.07687ZM44.9233 13.4568L44.8995 14.4565C51.5351 14.6144 57.0256 9.30682 57.1848 2.62472L56.1851 2.6009L55.1854 2.57708C55.052 8.17554 50.458 12.5882 44.9471 12.4571L44.9233 13.4568ZM57.1632 1.62392L57.1394 2.62364L67.2264 2.86398L67.2503 1.86426L67.2741 0.864549L57.187 0.624209L57.1632 1.62392ZM68.1807 2.88672L67.181 2.86291C67.0218 9.54496 72.2532 15.1081 78.8888 15.2664L78.9127 14.2667L78.9365 13.267C73.4257 13.1355 69.0471 8.50898 69.1804 2.91053L68.1807 2.88672ZM78.9127 14.2667L78.8889 15.2664C85.5247 15.4245 91.0149 10.1167 91.1742 3.43458L90.1745 3.41075L89.1748 3.38693C89.0413 8.9855 84.4475 13.3983 78.9365 13.267L78.9127 14.2667ZM91.1535 2.4338L91.1297 3.43351L101.217 3.67385L101.241 2.67414L101.264 1.67442L91.1773 1.43408L91.1535 2.4338ZM102.171 3.69659L101.171 3.67279C101.012 10.3548 106.244 15.9181 112.879 16.0763L112.903 15.0765L112.927 14.0768C107.416 13.9454 103.037 9.31888 103.171 3.7204L102.171 3.69659ZM112.903 15.0765L112.879 16.0763C119.515 16.2344 125.005 10.9265 125.165 4.24446L124.165 4.22063L123.165 4.19679C123.032 9.79535 118.438 14.2081 112.927 14.0768L112.903 15.0765ZM125.144 3.24367L125.12 4.24339L135.207 4.48373L135.231 3.48401L135.255 2.4843L125.168 2.24395L125.144 3.24367ZM136.162 4.50649L135.163 4.48267C135.003 11.1649 140.235 16.7281 146.871 16.8862L146.894 15.8864L146.918 14.8867C141.407 14.7554 137.029 10.1289 137.162 4.53031L136.162 4.50649ZM146.894 15.8864L146.871 16.8862C153.506 17.044 158.997 11.7364 159.156 5.05434L158.156 5.03052L157.156 5.0067C157.023 10.6051 152.429 15.0178 146.918 14.8867L146.894 15.8864ZM159.134 4.05354L159.11 5.05326L169.197 5.2936L169.221 4.29388L169.245 3.29417L159.158 3.05383L159.134 4.05354ZM170.152 5.31634L169.152 5.29252C168.993 11.9746 174.224 17.5376 180.86 17.696L180.884 16.6963L180.908 15.6966C175.397 15.5651 171.018 10.9386 171.151 5.34015L170.152 5.31634ZM180.884 16.6963L180.86 17.696C187.496 17.8541 192.986 12.5464 193.145 5.8642L192.146 5.84037L191.146 5.81655C191.012 11.4151 186.419 15.8279 180.908 15.6966L180.884 16.6963ZM193.125 4.86342L193.101 5.86313L203.188 6.10347L203.212 5.10376L203.235 4.10404L193.148 3.8637L193.125 4.86342ZM204.142 6.12621L203.142 6.1024C202.983 12.7844 208.215 18.3476 214.85 18.5059L214.874 17.5062L214.898 16.5065C209.387 16.375 205.008 11.7485 205.142 6.15002L204.142 6.12621ZM214.874 17.5062L214.85 18.5059C221.486 18.664 226.976 13.3562 227.136 6.67407L226.136 6.65025L225.136 6.62642C225.003 12.225 220.409 16.6378 214.898 16.5065L214.874 17.5062ZM227.115 5.67329L227.091 6.67301L237.178 6.91335L237.202 5.91363L237.226 4.91391L227.139 4.67357L227.115 5.67329ZM238.132 6.93608L237.133 6.91228C236.974 13.5943 242.205 19.1575 248.841 19.3158L248.864 18.316L248.888 17.3163C243.377 17.1849 238.999 12.5584 239.132 6.95989L238.132 6.93608ZM248.864 18.316L248.841 19.3158C255.476 19.4739 260.967 14.166 261.126 7.48395L260.126 7.46012L259.127 7.43629C258.993 13.0348 254.399 17.4476 248.888 17.3163L248.864 18.316ZM261.105 6.48316L261.081 7.48288L271.169 7.72322L271.192 6.7235L271.216 5.72379L261.129 5.48345L261.105 6.48316ZM272.124 7.74598L271.124 7.72216C270.965 14.4043 276.196 19.9675 282.832 20.1257L282.856 19.1259L282.88 18.1262C277.369 17.9949 272.99 13.3684 273.124 7.7698L272.124 7.74598ZM282.856 19.1259L282.832 20.1257C289.468 20.2835 294.958 14.9759 295.117 8.29384L294.118 8.27002L293.118 8.2462C292.984 13.8446 288.39 18.2573 282.88 18.1262L282.856 19.1259ZM295.096 7.29304L295.072 8.29275L305.159 8.53309L305.183 7.53338L305.207 6.53366L295.119 6.29332L295.096 7.29304ZM306.113 8.55583L305.113 8.53201C304.954 15.2141 310.186 20.7771 316.821 20.9355L316.845 19.9358L316.869 18.9361C311.358 18.8045 306.98 14.1781 307.113 8.57965L306.113 8.55583ZM316.845 19.9358L316.821 20.9355C323.457 21.0936 328.947 15.7859 329.107 9.10369L328.107 9.07987L327.107 9.05604C326.974 14.6546 322.38 19.0674 316.869 18.9361L316.845 19.9358ZM329.086 8.10291L329.062 9.10262L339.149 9.34297L339.173 8.34325L339.197 7.34353L329.11 7.10319L329.086 8.10291ZM340.104 9.3657L339.104 9.34189C338.945 16.0239 344.176 21.5871 350.812 21.7454L350.836 20.7457L350.859 19.7459C345.349 19.6145 340.97 14.988 341.103 9.38952L340.104 9.3657ZM350.836 20.7457L350.812 21.7454C357.448 21.9035 362.938 16.5957 363.097 9.91357L362.097 9.88974L361.098 9.86591C360.964 15.4645 356.37 19.8772 350.859 19.7459L350.836 20.7457ZM363.076 8.91278L363.053 9.9125L373.14 10.1528L373.163 9.15312L373.187 8.15341L363.1 7.91307L363.076 8.91278ZM374.094 10.1756L373.094 10.1518C372.935 16.8338 378.166 22.397 384.802 22.5552L384.826 21.5555L384.85 20.5558C379.339 20.4244 374.96 15.7979 375.094 10.1994L374.094 10.1756ZM384.826 21.5555L384.802 22.5552C391.438 22.7134 396.928 17.4055 397.087 10.7234L396.088 10.6996L395.088 10.6758C394.954 16.2743 390.361 20.6871 384.85 20.5558L384.826 21.5555ZM397.067 9.72265L397.043 10.7224L397.088 10.7235L397.112 9.72374L397.136 8.72402L397.09 8.72294L397.067 9.72265ZM397.112 9.72374L397.088 10.7235C407.579 10.9734 415.88 19.6802 415.63 30.1706L416.63 30.1945L417.63 30.2183C417.906 18.6236 408.731 9.00028 397.136 8.72402L397.112 9.72374ZM416.63 30.1945L415.63 30.1706L405.891 438.93L406.891 438.953L407.89 438.977L417.63 30.2183L416.63 30.1945ZM406.891 438.953L405.891 438.93C405.641 449.42 396.934 457.722 386.444 457.472L386.42 458.471L386.396 459.471C397.991 459.747 407.614 450.572 407.89 438.977L406.891 438.953ZM386.42 458.471L386.444 457.472L386.398 457.471L386.375 458.47L386.351 459.47L386.396 459.471L386.42 458.471ZM385.443 457.448L386.443 457.472C386.602 450.789 381.371 445.226 374.735 445.068L374.711 446.068L374.687 447.068C380.198 447.199 384.577 451.825 384.443 457.424L385.443 457.448ZM374.711 446.068L374.735 445.068C368.099 444.91 362.609 450.218 362.45 456.9L363.449 456.924L364.449 456.948C364.583 451.349 369.176 446.936 374.687 447.068L374.711 446.068ZM362.471 457.901L362.495 456.901L352.408 456.661L352.384 457.66L352.36 458.66L362.447 458.9L362.471 457.901ZM351.453 456.638L352.453 456.662C352.612 449.98 347.38 444.416 340.745 444.258L340.721 445.258L340.697 446.258C346.208 446.389 350.586 451.016 350.453 456.614L351.453 456.638ZM340.721 445.258L340.745 444.258C334.109 444.1 328.619 449.408 328.459 456.09L329.459 456.114L330.459 456.138C330.592 450.539 335.186 446.127 340.697 446.258L340.721 445.258ZM328.481 457.091L328.505 456.091L318.418 455.851L318.394 456.851L318.37 457.85L328.457 458.091L328.481 457.091ZM317.463 455.828L318.463 455.852C318.622 449.17 313.391 443.607 306.755 443.448L306.731 444.448L306.708 445.448C312.218 445.579 316.597 450.206 316.464 455.804L317.463 455.828ZM306.731 444.448L306.755 443.448C300.12 443.29 294.629 448.598 294.47 455.28L295.47 455.304L296.469 455.328C296.603 449.729 301.197 445.317 306.708 445.448L306.731 444.448ZM294.491 456.281L294.514 455.281L284.427 455.041L284.404 456.041L284.38 457.04L294.467 457.281L294.491 456.281ZM283.473 455.018L284.473 455.042C284.632 448.36 279.401 442.797 272.765 442.639L272.741 443.638L272.717 444.638C278.228 444.769 282.607 449.396 282.473 454.994L283.473 455.018ZM272.741 443.638L272.765 442.639C266.129 442.48 260.639 447.788 260.48 454.47L261.479 454.494L262.479 454.518C262.613 448.919 267.206 444.507 272.717 444.638L272.741 443.638ZM260.5 455.471L260.524 454.471L250.437 454.231L250.413 455.231L250.389 456.231L260.476 456.471L260.5 455.471ZM249.482 454.208L250.481 454.232C250.641 447.55 245.409 441.987 238.774 441.829L238.75 442.828L238.726 443.828C244.237 443.959 248.615 448.586 248.482 454.185L249.482 454.208ZM238.75 442.828L238.774 441.829C232.138 441.671 226.648 446.978 226.488 453.66L227.488 453.684L228.488 453.708C228.621 448.11 233.215 443.697 238.726 443.828L238.75 442.828ZM226.51 454.661L226.534 453.662L216.447 453.421L216.423 454.421L216.399 455.421L226.486 455.661L226.51 454.661ZM215.491 453.398L216.491 453.422C216.65 446.74 211.419 441.177 204.783 441.019L204.759 442.019L204.736 443.018C210.247 443.15 214.625 447.776 214.492 453.375L215.491 453.398ZM204.759 442.019L204.783 441.019C198.148 440.861 192.657 446.169 192.498 452.851L193.498 452.874L194.497 452.898C194.631 447.3 199.225 442.887 204.736 443.018L204.759 442.019ZM192.52 453.851L192.543 452.852L182.456 452.611L182.432 453.611L182.409 454.611L192.496 454.851L192.52 453.851ZM181.502 452.589L182.502 452.612C182.661 445.93 177.429 440.367 170.794 440.209L170.77 441.209L170.746 442.208C176.257 442.34 180.636 446.966 180.502 452.565L181.502 452.589ZM170.77 441.209L170.794 440.209C164.158 440.051 158.668 445.359 158.509 452.041L159.508 452.065L160.508 452.088C160.641 446.49 165.235 442.077 170.746 442.208L170.77 441.209ZM158.529 453.042L158.553 452.042L148.466 451.801L148.442 452.801L148.418 453.801L158.505 454.041L158.529 453.042ZM147.512 451.779L148.511 451.803C148.671 445.121 143.439 439.557 136.804 439.399L136.78 440.399L136.756 441.398C142.267 441.53 146.645 446.157 146.512 451.755L147.512 451.779ZM136.78 440.399L136.804 439.399C130.168 439.241 124.678 444.549 124.518 451.231L125.518 451.255L126.518 451.279C126.651 445.68 131.245 441.267 136.756 441.398L136.78 440.399ZM124.539 452.232L124.563 451.232L114.476 450.992L114.452 451.991L114.428 452.991L124.515 453.231L124.539 452.232ZM113.52 450.969L114.52 450.993C114.679 444.31 109.448 438.747 102.812 438.589L102.788 439.589L102.765 440.589C108.276 440.72 112.654 445.346 112.521 450.945L113.52 450.969ZM102.788 439.589L102.812 438.589C96.1765 438.431 90.6861 443.739 90.5269 450.421L91.5266 450.445L92.5263 450.469C92.6597 444.87 97.2537 440.457 102.765 440.589L102.788 439.589ZM90.5485 451.422L90.5723 450.422L80.4852 450.182L80.4614 451.181L80.4376 452.181L90.5247 452.422L90.5485 451.422ZM79.53 450.159L80.5297 450.183C80.6889 443.501 75.4577 437.937 68.8218 437.779L68.798 438.779L68.7742 439.779C74.2852 439.91 78.6637 444.537 78.5303 450.135L79.53 450.159ZM68.798 438.779L68.8218 437.779C62.1861 437.621 56.6957 442.929 56.5365 449.611L57.5362 449.635L58.536 449.659C58.6693 444.06 63.2633 439.648 68.7742 439.779L68.798 438.779ZM56.5581 450.612L56.582 449.612L46.4949 449.372L46.4711 450.372L46.4473 451.371L56.5343 451.612L56.5581 450.612ZM45.5406 449.349L46.5403 449.373C46.6995 442.691 41.468 437.128 34.8325 436.969L34.8086 437.969L34.7848 438.969C40.2956 439.1 44.6742 443.727 44.5409 449.325L45.5406 449.349ZM34.8086 437.969L34.8325 436.969C28.1967 436.811 22.7064 442.119 22.5471 448.801L23.5469 448.825L24.5466 448.849C24.68 443.25 29.2739 438.838 34.7848 438.969L34.8086 437.969ZM22.5678 449.802L22.5917 448.802L20.5477 448.754L20.5239 449.753L20.5001 450.753L22.544 450.802L22.5678 449.802ZM20.5239 449.753L20.5477 448.754C10.0574 448.504 1.75583 439.797 2.00568 429.306L1.00596 429.283L0.00624808 429.259C-0.269905 440.853 8.90546 450.477 20.5001 450.753L20.5239 449.753ZM1.00596 429.283L2.00568 429.306L11.745 20.5474L10.7453 20.5236L9.74557 20.4998L0.00624808 429.259L1.00596 429.283ZM10.7453 20.5236L11.745 20.5474C11.995 10.057 20.7018 1.75548 31.1922 2.00541L31.216 1.00569L31.2398 0.00597648C19.6452 -0.270257 10.0218 8.90513 9.74557 20.4998L10.7453 20.5236ZM31.216 1.00569L31.1922 2.00541L33.2361 2.05411L33.2599 1.05439L33.2838 0.0546767L31.2398 0.00597653L31.216 1.00569ZM20.0578 448.736L20.022 449.735L20.5119 449.753L20.5477 448.754L20.5835 447.754L20.0935 447.737L20.0578 448.736ZM20.5477 448.754L20.5715 447.754C20.371 447.749 20.1679 447.739 19.9583 447.727L19.9007 448.726L19.8432 449.724C20.063 449.737 20.2912 449.748 20.5239 449.753L20.5477 448.754ZM19.9007 448.726L19.8433 449.724C19.8591 449.725 19.8753 449.726 19.905 449.728C19.9311 449.73 19.9685 449.733 20.0086 449.735L20.0578 448.736L20.1069 447.737C20.015 447.733 20.1057 447.736 19.9582 447.727L19.9007 448.726ZM19.2338 448.674L19.1412 449.67C19.3103 449.686 19.4803 449.7 19.6513 449.711L19.7184 448.713L19.7855 447.716C19.6321 447.705 19.4792 447.693 19.3264 447.679L19.2338 448.674ZM19.7184 448.713L19.7854 447.716C19.6323 447.705 19.4793 447.693 19.3262 447.679L19.2338 448.674L19.1414 449.67C19.3102 449.686 19.4802 449.7 19.6513 449.711L19.7184 448.713ZM18.5528 448.599L18.4245 449.59C18.5837 449.611 18.7471 449.631 18.9134 449.648L19.0174 448.654L19.1214 447.659C18.9767 447.644 18.8305 447.626 18.6811 447.607L18.5528 448.599ZM19.0174 448.654L19.1211 447.659C18.9769 447.644 18.831 447.626 18.6808 447.607L18.5528 448.599L18.4248 449.59C18.5833 449.611 18.747 449.631 18.9137 449.648L19.0174 448.654ZM17.7118 448.474L17.5399 449.459C17.7694 449.499 17.9975 449.534 18.2216 449.565L18.36 448.575L18.4983 447.584C18.2879 447.555 18.0836 447.524 17.8836 447.489L17.7118 448.474ZM18.36 448.575L18.498 447.584C18.2881 447.555 18.0838 447.524 17.8836 447.489L17.7118 448.474L17.5399 449.459C17.7693 449.499 17.9974 449.534 18.2219 449.565L18.36 448.575ZM159.508 452.065L158.509 452.041C158.508 452.046 158.507 452.05 158.506 452.053C158.504 452.057 158.503 452.058 158.503 452.058C158.504 452.057 158.508 452.053 158.519 452.049C158.53 452.044 158.543 452.042 158.553 452.042L158.529 453.042L158.505 454.041C159.654 454.069 160.483 453.118 160.508 452.088L159.508 452.065ZM182.432 453.611L182.456 452.611C182.467 452.612 182.479 452.614 182.491 452.62C182.501 452.625 182.505 452.63 182.506 452.63C182.507 452.631 182.505 452.629 182.504 452.625C182.503 452.622 182.502 452.618 182.502 452.612L181.502 452.589L180.502 452.565C180.478 453.594 181.259 454.583 182.409 454.611L182.432 453.611ZM193.498 452.874L192.498 452.851C192.498 452.856 192.497 452.86 192.495 452.864C192.494 452.867 192.492 452.869 192.493 452.868C192.493 452.868 192.498 452.863 192.509 452.859C192.52 452.854 192.533 452.851 192.543 452.852L192.52 453.851L192.496 454.851C193.645 454.879 194.473 453.927 194.497 452.898L193.498 452.874ZM216.423 454.421L216.447 453.421C216.457 453.421 216.47 453.424 216.481 453.43C216.491 453.434 216.495 453.439 216.496 453.44C216.496 453.44 216.495 453.439 216.493 453.435C216.492 453.431 216.491 453.427 216.491 453.422L215.491 453.398L214.492 453.375C214.467 454.405 215.251 455.393 216.399 455.421L216.423 454.421ZM227.488 453.684L226.488 453.66C226.488 453.666 226.487 453.67 226.486 453.673C226.484 453.677 226.482 453.679 226.483 453.678C226.484 453.677 226.488 453.673 226.499 453.668C226.51 453.664 226.523 453.661 226.534 453.662L226.51 454.661L226.486 455.661C227.636 455.688 228.463 454.737 228.488 453.708L227.488 453.684ZM250.413 455.231L250.437 454.231C250.447 454.231 250.46 454.234 250.471 454.24C250.481 454.244 250.485 454.249 250.486 454.25C250.486 454.25 250.485 454.248 250.483 454.245C250.482 454.241 250.481 454.237 250.481 454.232L249.482 454.208L248.482 454.185C248.458 455.215 249.241 456.203 250.389 456.231L250.413 455.231ZM261.479 454.494L260.48 454.47C260.48 454.475 260.478 454.479 260.477 454.483C260.475 454.486 260.474 454.488 260.474 454.488C260.475 454.487 260.479 454.483 260.49 454.478C260.501 454.473 260.514 454.471 260.524 454.471L260.5 455.471L260.476 456.471C261.625 456.498 262.455 455.548 262.479 454.518L261.479 454.494ZM284.404 456.041L284.427 455.041C284.438 455.041 284.451 455.044 284.462 455.05C284.472 455.054 284.477 455.059 284.477 455.06C284.478 455.061 284.476 455.059 284.475 455.055C284.474 455.052 284.473 455.047 284.473 455.042L283.473 455.018L282.473 454.994C282.449 456.023 283.23 457.013 284.38 457.04L284.404 456.041ZM295.47 455.304L294.47 455.28C294.47 455.285 294.469 455.289 294.467 455.293C294.466 455.296 294.464 455.298 294.465 455.297C294.465 455.297 294.47 455.292 294.48 455.288C294.491 455.283 294.504 455.281 294.514 455.281L294.491 456.281L294.467 457.281C295.615 457.308 296.445 456.358 296.469 455.328L295.47 455.304ZM318.394 456.851L318.418 455.851C318.428 455.851 318.441 455.854 318.452 455.859C318.462 455.864 318.467 455.869 318.468 455.87C318.468 455.87 318.467 455.869 318.465 455.865C318.464 455.861 318.463 455.857 318.463 455.852L317.463 455.828L316.464 455.804C316.439 456.833 317.22 457.823 318.37 457.85L318.394 456.851ZM329.459 456.114L328.459 456.09C328.459 456.095 328.458 456.1 328.457 456.103C328.455 456.107 328.453 456.108 328.454 456.108C328.455 456.107 328.46 456.102 328.47 456.098C328.482 456.093 328.494 456.091 328.505 456.091L328.481 457.091L328.457 458.091C329.607 458.118 330.434 457.167 330.459 456.138L329.459 456.114ZM352.384 457.66L352.408 456.661C352.418 456.661 352.431 456.664 352.442 456.669C352.452 456.674 352.456 456.679 352.457 456.679C352.457 456.68 352.456 456.678 352.455 456.674C352.453 456.671 352.452 456.667 352.453 456.662L351.453 456.638L350.453 456.614C350.429 457.644 351.212 458.633 352.36 458.66L352.384 457.66ZM363.449 456.924L362.45 456.9C362.45 456.905 362.449 456.909 362.447 456.913C362.445 456.917 362.444 456.918 362.444 456.918C362.445 456.917 362.45 456.912 362.46 456.908C362.472 456.903 362.485 456.901 362.495 456.901L362.471 457.901L362.447 458.9C363.597 458.928 364.425 457.976 364.449 456.948L363.449 456.924ZM386.375 458.47L386.398 457.471C386.409 457.471 386.421 457.474 386.432 457.479C386.442 457.484 386.447 457.488 386.447 457.489C386.448 457.49 386.446 457.488 386.445 457.484C386.444 457.481 386.443 457.477 386.443 457.472L385.443 457.448L384.443 457.424C384.419 458.454 385.202 459.443 386.351 459.47L386.375 458.47ZM396.088 10.6996L397.087 10.7234C397.087 10.7185 397.088 10.7145 397.09 10.7111C397.092 10.7074 397.093 10.7058 397.093 10.7063C397.092 10.7069 397.088 10.7112 397.077 10.7156C397.066 10.7203 397.053 10.7226 397.043 10.7224L397.067 9.72265L397.09 8.72294C395.942 8.69557 395.112 9.64572 395.088 10.6758L396.088 10.6996ZM362.097 9.88974L363.097 9.91356C363.097 9.9086 363.098 9.90459 363.1 9.90127C363.101 9.89751 363.103 9.89593 363.102 9.8964C363.102 9.89702 363.097 9.90138 363.087 9.90568C363.076 9.91044 363.063 9.91275 363.053 9.9125L363.076 8.91278L363.1 7.91307C361.952 7.8857 361.122 8.83585 361.098 9.86592L362.097 9.88974ZM339.173 8.34325L339.149 9.34297C339.139 9.34272 339.126 9.3398 339.115 9.3344C339.105 9.3295 339.1 9.32477 339.099 9.32399C339.099 9.32337 339.1 9.32496 339.102 9.32887C339.103 9.33234 339.104 9.3366 339.104 9.34188L340.104 9.3657L341.103 9.38952C341.128 8.36074 340.347 7.37093 339.197 7.34353L339.173 8.34325ZM328.107 9.07987L329.107 9.10369C329.107 9.09873 329.108 9.09472 329.109 9.09139C329.111 9.08763 329.112 9.08606 329.112 9.08653C329.111 9.08715 329.107 9.0915 329.097 9.09581C329.085 9.10057 329.073 9.10287 329.062 9.10262L329.086 8.10291L329.11 7.10319C327.961 7.07583 327.132 8.02597 327.107 9.05605L328.107 9.07987ZM305.183 7.53338L305.159 8.53309C305.149 8.53285 305.136 8.52993 305.124 8.52452C305.114 8.51962 305.11 8.5149 305.109 8.51412C305.108 8.5135 305.11 8.51509 305.111 8.519C305.113 8.52246 305.114 8.52673 305.113 8.53201L306.113 8.55583L307.113 8.57965C307.137 7.55087 306.356 6.56105 305.207 6.53366L305.183 7.53338ZM294.118 8.27002L295.117 8.29383C295.117 8.28856 295.118 8.28434 295.12 8.28093C295.122 8.2771 295.123 8.27558 295.123 8.27618C295.122 8.27693 295.117 8.28143 295.107 8.28583C295.095 8.2907 295.082 8.293 295.072 8.29275L295.096 7.29304L295.119 6.29332C293.97 6.26593 293.142 7.21741 293.118 8.2462L294.118 8.27002ZM271.192 6.7235L271.169 7.72322C271.158 7.72297 271.146 7.72007 271.135 7.71477C271.125 7.70999 271.12 7.70542 271.12 7.70477C271.119 7.70428 271.121 7.70593 271.122 7.70976C271.123 7.71315 271.124 7.7172 271.124 7.72216L272.124 7.74598L273.124 7.7698C273.148 6.73973 272.365 5.75115 271.216 5.72379L271.192 6.7235ZM260.126 7.46012L261.126 7.48394C261.126 7.47898 261.127 7.47497 261.129 7.47165C261.13 7.46788 261.132 7.46631 261.131 7.46678C261.131 7.4674 261.126 7.47176 261.116 7.47606C261.105 7.48083 261.092 7.48313 261.081 7.48288L261.105 6.48316L261.129 5.48345C259.981 5.45608 259.151 6.40622 259.127 7.4363L260.126 7.46012ZM237.202 5.91363L237.178 6.91335C237.168 6.9131 237.155 6.91019 237.144 6.90478C237.134 6.89988 237.129 6.89516 237.128 6.89437C237.128 6.89375 237.129 6.89534 237.131 6.89925C237.132 6.90272 237.133 6.90698 237.133 6.91226L238.132 6.93608L239.132 6.9599C239.157 5.93112 238.376 4.94131 237.226 4.91391L237.202 5.91363ZM226.136 6.65025L227.136 6.67407C227.136 6.66911 227.137 6.66509 227.138 6.66177C227.14 6.65801 227.141 6.65644 227.141 6.65691C227.14 6.65753 227.136 6.66188 227.126 6.66619C227.114 6.67095 227.101 6.67325 227.091 6.67301L227.115 5.67329L227.139 4.67357C225.99 4.64621 225.161 5.59635 225.136 6.62643L226.136 6.65025ZM192.146 5.84037L193.145 5.86419C193.145 5.85923 193.146 5.85522 193.148 5.8519C193.149 5.84814 193.151 5.84657 193.151 5.84704C193.15 5.84765 193.145 5.85201 193.135 5.85632C193.124 5.86108 193.111 5.86338 193.101 5.86313L193.125 4.86342L193.148 3.8637C192 3.83634 191.17 4.78648 191.146 5.81655L192.146 5.84037ZM23.5469 448.825L22.5471 448.801C22.547 448.806 22.546 448.81 22.5446 448.814C22.543 448.817 22.5414 448.819 22.5419 448.818C22.5425 448.818 22.547 448.813 22.5572 448.809C22.5685 448.804 22.5813 448.802 22.5917 448.802L22.5678 449.802L22.544 450.802C23.6925 450.829 24.522 449.879 24.5466 448.849L23.5469 448.825ZM158.156 5.03052L159.156 5.05434C159.156 5.04906 159.157 5.04484 159.159 5.04144C159.16 5.0376 159.162 5.03609 159.161 5.03669C159.16 5.03743 159.156 5.04193 159.145 5.04634C159.134 5.05121 159.121 5.05351 159.11 5.05326L159.134 4.05354L159.158 3.05383C158.008 3.02643 157.181 3.97792 157.156 5.0067L158.156 5.03052ZM203.212 5.10376L203.188 6.10347C203.177 6.10323 203.165 6.10031 203.153 6.0949C203.143 6.09 203.139 6.08528 203.138 6.0845C203.137 6.08388 203.139 6.08547 203.14 6.08938C203.142 6.09284 203.143 6.09711 203.142 6.10239L204.142 6.12621L205.142 6.15003C205.166 5.12125 204.385 4.13143 203.235 4.10404L203.212 5.10376ZM57.5362 449.635L56.5365 449.611C56.5364 449.616 56.5353 449.621 56.5339 449.624C56.5322 449.628 56.5307 449.629 56.5312 449.629C56.532 449.628 56.5367 449.624 56.5471 449.619C56.5587 449.614 56.5716 449.612 56.582 449.612L56.5581 450.612L56.5343 451.612C57.684 451.639 58.5114 450.688 58.536 449.659L57.5362 449.635ZM124.165 4.22063L125.165 4.24445C125.165 4.23949 125.166 4.23547 125.167 4.23215C125.169 4.22839 125.17 4.22682 125.17 4.22729C125.169 4.22791 125.165 4.23227 125.154 4.23657C125.143 4.24133 125.13 4.24363 125.12 4.24339L125.144 3.24367L125.168 2.24395C124.019 2.21659 123.19 3.16673 123.165 4.19681L124.165 4.22063ZM169.221 4.29388L169.197 5.2936C169.187 5.29335 169.174 5.29044 169.163 5.28503C169.153 5.28013 169.148 5.27541 169.148 5.27463C169.147 5.274 169.149 5.27559 169.15 5.2795C169.151 5.28297 169.152 5.28724 169.152 5.29252L170.152 5.31634L171.151 5.34016C171.176 4.31138 170.395 3.32156 169.245 3.29417L169.221 4.29388ZM91.5266 450.445L90.5269 450.421C90.5268 450.426 90.5257 450.43 90.5242 450.434C90.5226 450.438 90.521 450.439 90.5216 450.439C90.5223 450.438 90.5271 450.433 90.5375 450.429C90.549 450.424 90.5619 450.422 90.5723 450.422L90.5485 451.422L90.5247 452.422C91.6744 452.449 92.5018 451.497 92.5263 450.469L91.5266 450.445ZM90.1745 3.41075L91.1742 3.43457C91.1743 3.42961 91.1753 3.4256 91.1767 3.42228C91.1783 3.41852 91.1799 3.41695 91.1795 3.41742C91.1789 3.41804 91.1743 3.42239 91.1641 3.4267C91.1528 3.43146 91.1401 3.43376 91.1297 3.43351L91.1535 2.4338L91.1773 1.43408C90.0289 1.40672 89.1993 2.35686 89.1748 3.38693L90.1745 3.41075ZM46.4711 450.372L46.4949 449.372C46.5053 449.372 46.5181 449.375 46.5294 449.38C46.5396 449.385 46.5441 449.39 46.5448 449.391C46.5453 449.391 46.5438 449.39 46.5424 449.386C46.5411 449.382 46.5402 449.378 46.5403 449.373L45.5406 449.349L44.5409 449.325C44.5164 450.354 45.2975 451.344 46.4473 451.371L46.4711 450.372ZM135.231 3.48401L135.207 4.48373C135.197 4.48348 135.184 4.48057 135.173 4.47528C135.163 4.47049 135.159 4.46593 135.158 4.46528C135.158 4.46479 135.159 4.46644 135.161 4.47027C135.162 4.47365 135.163 4.47771 135.163 4.48267L136.162 4.50649L137.162 4.53031C137.187 3.50023 136.403 2.51166 135.255 2.4843L135.231 3.48401ZM373.163 9.15312L373.14 10.1528C373.129 10.1526 373.116 10.1497 373.105 10.1443C373.095 10.1394 373.09 10.1346 373.09 10.1339C373.089 10.1332 373.091 10.1348 373.092 10.1387C373.093 10.1422 373.094 10.1465 373.094 10.1518L374.094 10.1756L375.094 10.1994C375.118 9.17062 374.337 8.1808 373.187 8.15341L373.163 9.15312ZM125.518 451.255L124.518 451.231C124.518 451.236 124.517 451.24 124.516 451.243C124.514 451.247 124.512 451.249 124.513 451.248C124.514 451.247 124.518 451.243 124.528 451.239C124.54 451.234 124.552 451.232 124.563 451.232L124.539 452.232L124.515 453.231C125.664 453.259 126.493 452.309 126.518 451.279L125.518 451.255ZM56.1851 2.6009L57.1848 2.62472C57.1849 2.61944 57.186 2.61522 57.1875 2.61182C57.1891 2.60799 57.1907 2.60647 57.1901 2.60707C57.1894 2.60781 57.1846 2.61231 57.1742 2.61672C57.1627 2.62159 57.1498 2.62389 57.1394 2.62364L57.1632 1.62392L57.187 0.624209C56.0373 0.596815 55.2099 1.5483 55.1854 2.57709L56.1851 2.6009ZM80.4614 451.181L80.4852 450.182C80.4956 450.182 80.5082 450.185 80.5193 450.19C80.5293 450.195 80.5336 450.2 80.5342 450.2C80.5346 450.201 80.5331 450.199 80.5317 450.195C80.5304 450.192 80.5296 450.188 80.5297 450.183L79.53 450.159L78.5303 450.135C78.5057 451.165 79.2891 452.154 80.4376 452.181L80.4614 451.181ZM101.241 2.67414L101.217 3.67385C101.206 3.67361 101.194 3.67069 101.182 3.66529C101.172 3.66038 101.168 3.65566 101.167 3.65488C101.166 3.65426 101.168 3.65585 101.169 3.65976C101.171 3.66322 101.171 3.66749 101.171 3.67277L102.171 3.69659L103.171 3.72041C103.195 2.69163 102.414 1.70182 101.264 1.67442L101.241 2.67414ZM114.452 451.991L114.476 450.992C114.486 450.992 114.499 450.995 114.51 451C114.52 451.005 114.524 451.009 114.525 451.01C114.525 451.011 114.523 451.009 114.522 451.005C114.521 451.002 114.52 450.998 114.52 450.993L113.52 450.969L112.521 450.945C112.496 451.975 113.279 452.964 114.428 452.991L114.452 451.991ZM67.2503 1.86426L67.2264 2.86398C67.216 2.86373 67.2033 2.86082 67.192 2.85541C67.1818 2.85051 67.1773 2.84579 67.1766 2.84501C67.176 2.84438 67.1775 2.84597 67.179 2.84988C67.1802 2.85335 67.1811 2.85762 67.181 2.8629L68.1807 2.88672L69.1804 2.91054C69.2049 1.88176 68.4238 0.891942 67.2741 0.864549L67.2503 1.86426ZM148.442 452.801L148.466 451.801C148.476 451.802 148.489 451.805 148.5 451.81C148.511 451.815 148.515 451.82 148.516 451.82C148.516 451.821 148.515 451.819 148.513 451.816C148.512 451.812 148.511 451.808 148.511 451.803L147.512 451.779L146.512 451.755C146.487 452.784 147.269 453.774 148.418 453.801L148.442 452.801ZM34.1913 2.07687L35.1911 2.10069C35.2156 1.07061 34.4322 0.0820402 33.2838 0.0546767L33.2599 1.05439L33.2361 2.05411C33.2257 2.05386 33.2131 2.05096 33.202 2.04566C33.1921 2.04087 33.1877 2.03631 33.1872 2.03566C33.1867 2.03517 33.1882 2.03682 33.1897 2.04065C33.1909 2.04403 33.1917 2.04809 33.1916 2.05305L34.1913 2.07687Z" fill="#232323"/>
</svg>
